<svg xmlns="http://www.w3.org/2000/svg" viewBox="0 0 512.001 512.001"><path d="M386.483 442.549c-45.047.25-90.091.093-135.135.027l-31.65-.439-31.648.439c-45.045.067-90.09.223-135.135-.027-47.53-.261-49.435-3.988-27.165-42.85l84.497-144.408c13.459-22.998 26.853-46.037 40.278-69.057V31.692h138.349v154.541c13.423 23.02 26.819 46.057 40.278 69.057l84.497 144.408c22.268 38.863 20.364 42.59-27.166 42.851z" fill="#baeec3"/><path d="M288.874 186.233c13.423 23.02 26.819 46.057 40.278 69.057l84.497 144.408c22.268 38.862 20.364 42.589-27.167 42.85-45.045.25-90.09.093-135.134.027l-31.65-.439-31.648.439c-45.045.067-90.09.223-135.135-.027-47.53-.261-49.435-3.988-27.165-42.85l84.497-144.408c13.458-22.998 26.853-46.037 40.278-69.057l-.089-.793c52.781-46.266 85.745 35.714 138.531-10.554l-.093 11.347z" fill="#458081"/><path d="M334.212 263.941c-91.501 36.035-142.036 114.74-142.036 178.578l27.523-.382 31.648.439c45.047.067 90.09.223 135.136-.027 47.53-.261 49.434-3.988 27.165-42.85l-79.436-135.758z" fill="#316d6d"/><path d="M242.801 475.131a211.6 211.6 0 01.605-46.732c14.288-115.09 118.854-196.77 233.568-182.442a211.731 211.731 0 0122.053 3.959 211.475 211.475 0 01-.61 46.731c-14.282 115.09-118.85 196.771-233.565 182.443a211.195 211.195 0 01-22.051-3.959z" fill="#c5e02c"/><path d="M242.712 474.067l256.316-224.151a211.475 211.475 0 01-.61 46.731c-14.282 115.09-118.85 196.771-233.565 182.443a211.625 211.625 0 01-22.051-3.959c-.035-.354-.058-.711-.09-1.064z" fill="#a5cd27"/><path d="M290.852 490.528c-9.086 0-18.253-.56-27.499-1.71a224.876 224.876 0 01-23.298-4.17 12.37 12.37 0 01-9.495-10.833 222.553 222.553 0 01.638-49.233c15.083-121.09 125.851-207.336 246.946-192.263 7.761.968 15.599 2.37 23.297 4.17a12.374 12.374 0 019.498 10.833 222.45 222.45 0 01-.646 49.234C496.37 408.398 400.781 490.528 290.852 490.528zm-20.232-25.789c105.87 10.91 201.902-65.098 215.119-171.24a198.037 198.037 0 001.25-34.77 199.122 199.122 0 00-11.904-1.856c-107.561-13.385-205.934 63.216-219.33 170.762a198.472 198.472 0 00-1.423 18.474l113.191-99.17c5.142-4.504 12.958-3.985 17.46 1.153 4.502 5.139 3.987 12.957-1.153 17.46l-113.21 99.187zm-161.796-9.627c-18.547 0-37.171-.033-55.649-.136-26.622-.146-43.305-.869-50.48-13.348-6.897-11.996.201-26.07 12.706-47.824l84.397-143.767c9.296-15.832 18.559-31.68 27.822-47.528l10.679-18.265V46.221h-12.883c-6.834 0-12.373-5.539-12.373-12.373s5.539-12.373 12.373-12.373h24.967c.096-.001.192-.003.289-.003h138.275l.289.003H314.2c6.834 0 12.373 5.539 12.373 12.373s-5.539 12.373-12.373 12.373h-12.88v138.132l21.996 37.472c3.46 5.894 1.486 13.474-4.407 16.934-5.895 3.459-13.474 1.486-16.933-4.407l-21.813-37.161c-24.992 12.442-46.874 3.359-65.098-4.205-19.922-8.272-34.531-14.333-53.891 1.163l-12.189 20.848a26955.41 26955.41 0 01-27.847 47.57L36.8 406.235c-2.741 4.77-9.446 16.433-11.45 22.421 6.637 1.459 21.731 1.541 27.963 1.575 36.914.205 74.46.136 110.774.069l24.025-.041h.019c6.826 0 12.362 5.528 12.373 12.355.011 6.833-5.521 12.381-12.354 12.391l-24.017.041c-18.203.031-36.717.066-55.309.066zm76.213-295.33c14.586 0 27.806 5.487 39.516 10.349 19.276 8.001 33.576 13.941 52.022.279V46.221H163.046v118.054c7.635-3.224 14.971-4.493 21.991-4.493zm7.921 182.719c-6.834 0-12.414-5.539-12.414-12.373s5.499-12.373 12.333-12.373h.082c6.834 0 12.373 5.539 12.373 12.373s-5.54 12.373-12.374 12.373zm41.188-59.335c-6.834 0-12.413-5.539-12.413-12.373s5.499-12.373 12.333-12.373h.081c6.834 0 12.373 5.539 12.373 12.373s-5.54 12.373-12.374 12.373zm-41.188-42.729c-6.834 0-12.414-5.539-12.414-12.373s5.499-12.373 12.333-12.373h.082c6.834 0 12.373 5.539 12.373 12.373s-5.54 12.373-12.374 12.373z"/></svg>