<svg xmlns="http://www.w3.org/2000/svg" viewBox="0 0 512 512"><path d="M444.176 382.821v64.118c0 29.936-84.249 54.205-188.175 54.205S67.826 476.876 67.826 446.94v-64.118h376.35z" fill="#984c16"/><path d="M256.001 451.381c-103.926 0-188.175-30.695-188.175-68.56s84.249-68.56 188.175-68.56 188.175 30.695 188.175 68.56-84.248 68.56-188.175 68.56z" fill="#c8904d"/><path d="M254.442 218.692c-5.922.626-11.933.956-18.02.956-93.117 0-168.596-75.233-168.596-168.042 0-12.775 1.44-25.213 4.149-37.171 5.922-.627 11.93-.956 18.02-.956 93.112 0 168.593 75.235 168.593 168.042a168.181 168.181 0 01-4.146 37.171z" fill="#a5cd27"/><g fill="#729800"><path d="M254.442 218.692a168.121 168.121 0 004.145-37.171c0-21.128-3.922-41.339-11.064-59.966-16.041 25.722-25.316 56.074-25.316 88.589 0 2.995.087 5.969.243 8.925 4.608.378 9.266.578 13.972.578 6.087.001 12.098-.329 18.02-.955z"/><path d="M434.267 14.435a168.121 168.121 0 014.146 37.171c0 92.809-75.481 168.042-168.593 168.042-6.09 0-12.098-.33-18.02-.956a168.122 168.122 0 01-4.148-37.171c0-92.809 75.479-168.042 168.596-168.042 6.086 0 12.097.329 18.019.956z"/></g><path d="M217.501 392.735c4.886-16.591 20.27-28.711 38.5-28.711 18.227 0 33.615 12.119 38.5 28.711 0 0-10.936 8.226-38.5 8.226s-38.5-8.226-38.5-8.226z" fill="#984c16"/><path d="M256.003 512c-79.549 0-151.782-15.256-188.513-39.813-5.418-3.623-6.874-10.952-3.251-16.371 3.623-5.418 10.952-6.875 16.371-3.252 32.558 21.767 101.403 35.832 175.395 35.832 73.986 0 142.832-14.065 175.395-35.832 5.42-3.622 12.749-2.164 16.369 3.253 3.623 5.418 2.166 12.747-3.252 16.371C407.778 496.745 335.545 512 256.003 512zm0-50.175c-96.713 0-199.5-28.249-199.5-80.599 0-38.013 57.582-68.593 146.694-77.906 6.479-.671 12.287 4.028 12.965 10.512.678 6.483-4.028 12.287-10.512 12.965-78.585 8.213-125.544 34.125-125.544 54.43 0 23.799 66.917 56.995 175.896 56.995 108.978 0 175.893-33.196 175.893-56.995 0-20.458-47.37-46.452-126.642-54.542-6.484-.662-11.204-6.454-10.543-12.939.662-6.485 6.449-11.212 12.939-10.543 89.815 9.165 147.85 39.791 147.85 78.024.001 52.349-102.785 80.598-199.496 80.598zm-38.399-58.687c-1.1 0-2.22-.156-3.329-.481-6.254-1.836-9.835-8.394-8-14.649 5.298-18.044 20.103-31.606 37.925-35.828V229.755a180.31 180.31 0 01-7.729.167c-99.236 0-179.97-80.732-179.97-179.966 0-13.394 1.49-26.782 4.427-39.796a11.802 11.802 0 0110.268-9.137A183.103 183.103 0 0190.416 0c99.233 0 179.966 80.733 179.966 179.967 0 .616-.003 1.231-.009 1.848l66.971-78.458c4.232-4.957 11.681-5.546 16.638-1.314 4.957 4.232 5.546 11.681 1.314 16.638l-74.478 87.252c81.09-5.681 145.327-73.468 145.327-155.977 0-8.768-.732-17.527-2.181-26.141-2.721-.14-5.437-.212-8.126-.212-50.128 0-97.578 24.311-126.932 65.031-3.811 5.289-11.188 6.486-16.474 2.672-5.287-3.812-6.484-11.188-2.672-16.474C303.537 27.974 358.147 0 415.839 0c6.356 0 12.822.345 19.22 1.023a11.8 11.8 0 0110.266 9.137 181.013 181.013 0 014.426 39.796c0 99.233-80.733 179.966-179.967 179.966-.674 0-1.336-.056-1.979-.165V352.18c17.822 4.222 32.628 17.785 37.925 35.828 1.836 6.254-1.745 12.813-7.999 14.647-6.256 1.837-12.813-1.745-14.649-7.999-3.501-11.925-14.637-20.253-27.079-20.253s-23.578 8.33-27.079 20.253c-1.511 5.146-6.217 8.482-11.32 8.482zM82.289 23.816a157.68 157.68 0 00-2.183 26.141c0 83.656 66.032 152.178 148.716 156.177l-77.704-87.267c-4.334-4.868-3.902-12.328.966-16.663 4.866-4.335 12.326-3.902 16.663.966l77.685 87.246c.231-3.476.346-6.963.346-10.45 0-86.22-70.144-156.364-156.362-156.364-2.692.002-5.406.073-8.127.214z"/></svg>