<svg xmlns="http://www.w3.org/2000/svg" viewBox="0 0 512.002 512.002"><path d="M508.344 137.541a9.939 9.939 0 01-7.362 3.234 9.939 9.939 0 01-6.642-2.528l-42.614-38.061a9.73 9.73 0 01-.714-13.852c3.669-4.02 9.939-4.339 14.004-.707l42.616 38.061a9.735 9.735 0 01.712 13.853zm-85.765-6.372c-3.989-3.71-10.263-3.523-14.016.423a9.732 9.732 0 00.427 13.863l42.587 39.627a9.944 9.944 0 006.793 2.665 9.935 9.935 0 007.223-3.088 9.73 9.73 0 00-.427-13.863l-42.587-39.627z" fill="#828282"/><path d="M408.033 82.336c-3.176 4.413-9.367 5.444-13.828 2.304-4.034-2.839-23.81-15.352-27.992-17.906-35.101-21.424-75.223-32.68-116.922-32.68-123.047 0-223.154 99.018-223.154 220.727 0 108.783 78.65 200.4 187.01 217.846 5.406.87 9.073 5.91 8.194 11.255-.792 4.813-4.998 8.234-9.774 8.234a10.2 10.2 0 01-1.605-.128c-56.269-9.06-107.815-37.743-145.141-80.766-37.733-43.491-58.514-99.05-58.514-156.44 0-64.199 25.274-124.555 71.166-169.95 45.893-45.392 106.912-70.393 171.82-70.393 46.535 0 91.275 12.88 130.175 37.362 3.574 2.25 22.764 14.414 26.236 16.858 4.462 3.141 5.504 9.266 2.329 13.677z" fill="#a5cd27"/><path d="M478.829 86.757l-67.111 73.972-29.771-26.424c-16.368-14.53-17.743-39.67-3.051-55.863l13.687-15.085c14.689-16.193 40.105-17.553 56.476-3.02l29.77 26.42z" fill="#5d7d00"/><path d="M209.64 482.39a228.392 228.392 0 01.677-51.205c15.877-126.109 132.096-215.608 259.589-199.909a238.212 238.212 0 0124.509 4.339 228.275 228.275 0 01-.679 51.205c-15.869 126.11-132.091 215.61-259.587 199.91a237.502 237.502 0 01-24.509-4.34z" fill="#c5e02c"/><path d="M234.149 486.731a237.772 237.772 0 01-24.509-4.341l284.775-246.775a228.275 228.275 0 01-.679 51.205c-15.869 126.109-132.091 215.611-259.587 199.911z" fill="#a5cd27"/><path d="M366.928 347.742a9.836 9.836 0 01-.954 13.981L213.869 493.137a253.21 253.21 0 01-11.811-2.424 237.445 237.445 0 01-.926-12.88L352.796 346.8c4.168-3.601 10.495-3.178 14.132.942z" fill="#5d7d00"/><path d="M263.187 504.309a252.19 252.19 0 01-31.192-1.943 252.473 252.473 0 01-25.688-4.571c-56.948-9.385-109.102-38.786-146.894-82.825C21.1 370.327 0 313.299 0 254.391 0 118.362 110.67 7.693 246.699 7.693c49.532 0 97.058 14.53 137.859 42.083 9.169-8.496 20.941-13.487 33.641-14.175 14.377-.784 28.192 4.066 38.865 13.643l29.734 26.685c5.708 5.123 6.183 13.903 1.062 19.611l-2.961 3.301 22.489 20.175c5.71 5.122 6.186 13.903 1.063 19.611-5.12 5.709-13.902 6.186-19.611 1.063l-22.492-20.178-24.015 26.76 22.489 20.178c5.708 5.122 6.185 13.903 1.062 19.613-5.122 5.708-13.905 6.185-19.613 1.062l-22.491-20.179-2.957 3.295c-5.12 5.709-13.903 6.186-19.611 1.062l-29.74-26.683c-21.44-19.242-23.807-51.93-5.808-74.038-35.433-23.001-76.359-35.11-118.965-35.11-120.712-.002-218.922 98.208-218.922 218.92 0 101.994 68.941 188.771 166.282 212.575a250.431 250.431 0 011.85-36.701C212.834 294.351 337.16 197.53 473.085 214.46a252.355 252.355 0 0126.154 4.68 13.89 13.89 0 0110.658 12.161 249.638 249.638 0 01-.725 55.265c-8.197 65.838-41.54 124.545-93.893 165.305-44.056 34.303-97.137 52.438-152.092 52.438zm-23.037-28.966c56.86 5.868 112.819-10.161 158.068-45.387 46.497-36.201 76.114-88.344 83.394-146.822a222.117 222.117 0 001.403-39.027 223.805 223.805 0 00-13.362-2.085c-120.708-15.021-231.148 70.957-246.182 191.673a222.91 222.91 0 00-1.6 20.736l127.054-111.312c5.771-5.055 14.545-4.473 19.597 1.295 5.054 5.768 4.473 14.544-1.295 19.597L240.15 475.343zM421.161 63.301c-.485 0-.972.014-1.46.039-6.983.378-13.371 3.421-17.991 8.569l-13.672 15.235c-9.598 10.697-8.708 27.206 1.988 36.805l19.4 17.409 2.759-3.074a14.27 14.27 0 01.397-.445l42.156-46.974c.068-.082.139-.16.21-.239.071-.08.143-.159.216-.235l2.748-3.062-19.398-17.409c-4.791-4.299-10.906-6.619-17.353-6.619z"/></svg>